<?xml version="1.0" encoding="UTF-8"?>
<svg id="Layer_1" data-name="Layer 1" xmlns="http://www.w3.org/2000/svg" viewBox="0 0 712.02 715.27">
  <path d="M645.38,249.35l-159.01.55c-22.01-39.47-46.97-60.9-127.53-60.11-80.56.79-153.73,66.15-153.38,168.79.38,109.37,57.25,173.11,160.73,172.75,71.51-.25,121.02-38.28,142.66-104.82l-109.65,6.24-.37-106,251.27-6.75s12.89,51.96-16.36,133.85c-29.25,81.88-122.41,204.02-278.05,204.56-176.67.61-296.01-122.65-296.62-299.32-.61-176.67,122.63-301.61,299.31-302.23,141.34-.49,269.25,62.18,286.99,192.49Z"/>
</svg>