<?xml version="1.0" encoding="UTF-8"?>
<svg id="Layer_1" data-name="Layer 1" xmlns="http://www.w3.org/2000/svg" viewBox="0 0 563.76 201.31">
  <path d="M152.65,83.07l-37.86.13c-5.24-9.4-11.18-14.5-30.37-14.31-19.18.19-36.61,15.75-36.52,40.19.09,26.04,13.63,41.22,38.27,41.14,17.03-.06,28.82-9.12,33.97-24.96l-26.11,1.49-.09-25.24,59.83-1.61s3.07,12.37-3.9,31.87-29.15,48.58-66.21,48.71c-42.07.15-70.49-29.21-70.63-71.28-.15-42.07,29.2-71.82,71.27-71.97,33.66-.12,64.11,14.81,68.34,45.84Z"/>
  <path d="M230.2,180.82c-32.73,2.86-58.2-17.03-61.29-52.35-3.09-35.32,18.14-59.3,51.27-62.2,32.53-2.85,57.25,15.37,60.22,49.3.28,3.19.38,6.6.27,10.03l-77.12,8.09c2.47,14.46,12.05,20.46,23.02,19.5,9.58-.84,14.55-6.1,16.82-12.33l36.21-4.51c-3.49,22.23-21.66,42.05-49.4,44.47ZM202.1,114.7l42.59-5.07c-1.07-12.17-11.14-16.99-22.51-16s-19.16,8.51-20.08,21.06Z"/>
  <path d="M304.33,97.46l-13.62,1.34v-28.45l13.62-1.34v-28.58h34.26v27.25l22.44-1.34v28.45l-22.44,1.34v44.87c0,6.61,2.8,9.42,10.42,9.42l12.22-1.34v30.38h-17.43c-23.24,0-39.47-9.82-39.47-38.86v-43.14Z"/>
  <path d="M377.05,37.63c0-10.42,8.21-18.63,20.43-18.63s20.23,8.21,20.23,18.63-8.21,18.43-20.23,18.43-20.43-8.21-20.43-18.43ZM380.26,67.68h34.26v111.79h-34.26v-111.79Z"/>
  <path d="M481.83,66.08c16.63,0,28.45,7.61,34.46,17.43v-15.83h34.26v111.79h-34.26v-15.83c-6.21,9.82-18.03,17.43-34.66,17.43-27.24,0-49.08-22.44-49.08-57.7s21.84-57.3,49.28-57.3ZM491.85,95.93c-12.82,0-24.44,9.62-24.44,27.45s11.62,27.85,24.44,27.85,24.44-9.82,24.44-27.65-11.42-27.65-24.44-27.65Z"/>
</svg>